<svg id="visual" viewBox="0 0 1920 1080" width="1920" height="1080" xmlns="http://www.w3.org/2000/svg" xmlns:xlink="http://www.w3.org/1999/xlink" version="1.1"><rect x="0" y="0" width="1920" height="1080" fill="#FFFFFF"></rect><defs><linearGradient id="grad1_0" x1="43.8%" y1="0%" x2="100%" y2="100%"><stop offset="14.444444444444446%" stop-color="#28973c" stop-opacity="1"></stop><stop offset="85.55555555555554%" stop-color="#28973c" stop-opacity="1"></stop></linearGradient></defs><defs><linearGradient id="grad1_1" x1="43.8%" y1="0%" x2="100%" y2="100%"><stop offset="14.444444444444446%" stop-color="#28973c" stop-opacity="1"></stop><stop offset="85.55555555555554%" stop-color="#7aba7b" stop-opacity="1"></stop></linearGradient></defs><defs><linearGradient id="grad1_2" x1="43.8%" y1="0%" x2="100%" y2="100%"><stop offset="14.444444444444446%" stop-color="#bdddbc" stop-opacity="1"></stop><stop offset="85.55555555555554%" stop-color="#7aba7b" stop-opacity="1"></stop></linearGradient></defs><defs><linearGradient id="grad1_3" x1="43.8%" y1="0%" x2="100%" y2="100%"><stop offset="14.444444444444446%" stop-color="#bdddbc" stop-opacity="1"></stop><stop offset="85.55555555555554%" stop-color="#ffffff" stop-opacity="1"></stop></linearGradient></defs><defs><linearGradient id="grad2_0" x1="0%" y1="0%" x2="56.3%" y2="100%"><stop offset="14.444444444444446%" stop-color="#28973c" stop-opacity="1"></stop><stop offset="85.55555555555554%" stop-color="#28973c" stop-opacity="1"></stop></linearGradient></defs><defs><linearGradient id="grad2_1" x1="0%" y1="0%" x2="56.3%" y2="100%"><stop offset="14.444444444444446%" stop-color="#7aba7b" stop-opacity="1"></stop><stop offset="85.55555555555554%" stop-color="#28973c" stop-opacity="1"></stop></linearGradient></defs><defs><linearGradient id="grad2_2" x1="0%" y1="0%" x2="56.3%" y2="100%"><stop offset="14.444444444444446%" stop-color="#7aba7b" stop-opacity="1"></stop><stop offset="85.55555555555554%" stop-color="#bdddbc" stop-opacity="1"></stop></linearGradient></defs><defs><linearGradient id="grad2_3" x1="0%" y1="0%" x2="56.3%" y2="100%"><stop offset="14.444444444444446%" stop-color="#ffffff" stop-opacity="1"></stop><stop offset="85.55555555555554%" stop-color="#bdddbc" stop-opacity="1"></stop></linearGradient></defs><g transform="translate(1920, 0)"><path d="M0 1080C-97.5 1020.8 -195 961.6 -304.1 935.8C-413.2 910.1 -533.8 917.8 -634.8 873.7C-735.8 829.6 -817.1 733.7 -870.5 632.5C-923.9 531.2 -949.3 424.6 -979.6 318.3C-1009.8 212 -1044.9 106 -1080 0L0 0Z" fill="#deeedd"></path><path d="M0 810C-73.1 765.6 -146.2 721.2 -228.1 701.9C-309.9 682.6 -400.4 688.4 -476.1 655.3C-551.8 622.2 -612.8 550.3 -652.9 474.3C-692.9 398.4 -712 318.4 -734.7 238.7C-757.4 159 -783.7 79.5 -810 0L0 0Z" fill="#9ccb9b"></path><path d="M0 540C-48.7 510.4 -97.5 480.8 -152 467.9C-206.6 455.1 -266.9 458.9 -317.4 436.9C-367.9 414.8 -408.6 366.9 -435.3 316.2C-461.9 265.6 -474.7 212.3 -489.8 159.1C-504.9 106 -522.5 53 -540 0L0 0Z" fill="#56a95c"></path><path d="M0 270C-24.4 255.2 -48.7 240.4 -76 234C-103.3 227.5 -133.5 229.5 -158.7 218.4C-183.9 207.4 -204.3 183.4 -217.6 158.1C-231 132.8 -237.3 106.1 -244.9 79.6C-252.5 53 -261.2 26.5 -270 0L0 0Z" fill="#28973c"></path></g><g transform="translate(0, 1080)"><path d="M0 -1080C105.6 -1040.6 211.3 -1001.3 312.7 -962.5C414.2 -923.7 511.5 -885.4 604.2 -831.7C697 -777.9 785.2 -708.6 859.2 -624.2C933.1 -539.8 992.7 -440.3 1027.1 -333.7C1061.6 -227.2 1070.8 -113.6 1080 0L0 0Z" fill="#deeedd"></path><path d="M0 -810C79.2 -780.5 158.4 -751 234.5 -721.9C310.6 -692.8 383.6 -664.1 453.2 -623.8C522.8 -583.4 588.9 -531.5 644.4 -468.2C699.8 -404.9 744.5 -330.2 770.4 -250.3C796.2 -170.4 803.1 -85.2 810 0L0 0Z" fill="#9ccb9b"></path><path d="M0 -540C52.8 -520.3 105.6 -500.6 156.4 -481.2C207.1 -461.8 255.7 -442.7 302.1 -415.8C348.5 -389 392.6 -354.3 429.6 -312.1C466.6 -269.9 496.4 -220.1 513.6 -166.9C530.8 -113.6 535.4 -56.8 540 0L0 0Z" fill="#56a95c"></path><path d="M0 -270C26.4 -260.2 52.8 -250.3 78.2 -240.6C103.5 -230.9 127.9 -221.4 151.1 -207.9C174.3 -194.5 196.3 -177.2 214.8 -156.1C233.3 -135 248.2 -110.1 256.8 -83.4C265.4 -56.8 267.7 -28.4 270 0L0 0Z" fill="#28973c"></path></g></svg>